<?xml version="1.0" standalone="no"?>
<!DOCTYPE svg PUBLIC "-//W3C//DTD SVG 20010904//EN"
 "http://www.w3.org/TR/2001/REC-SVG-20010904/DTD/svg10.dtd">
<svg version="1.0" xmlns="http://www.w3.org/2000/svg"
 width="502.000000pt" height="76.000000pt" viewBox="0 0 502.000000 76.000000"
 preserveAspectRatio="xMidYMid meet">

<g transform="translate(0.000000,76.000000) scale(0.100000,-0.100000)"
fill="#000000" stroke="none">
<path d="M1663 662 c-135 -48 -200 -150 -191 -301 5 -86 28 -141 82 -194 102
-102 297 -114 400 -25 l37 33 -45 44 -44 44 -32 -23 c-77 -55 -190 -28 -230
55 -41 84 -12 199 60 237 48 26 140 21 173 -10 l23 -22 48 49 48 48 -29 23
c-72 56 -207 75 -300 42z"/>
<path d="M2810 380 l0 -280 66 0 65 0 -6 198 c-7 228 -11 229 80 -31 l60 -167
50 0 51 0 69 191 70 191 3 -191 2 -191 65 0 65 0 0 280 0 280 -99 0 -99 0 -57
-170 c-31 -93 -60 -170 -64 -170 -5 0 -35 75 -67 168 l-59 167 -97 3 -98 3 0
-281z"/>
<path d="M237 643 c-4 -3 -7 -12 -7 -20 0 -10 29 -13 135 -13 l135 0 0 -25 0
-25 -245 0 c-238 0 -245 -1 -245 -20 0 -19 7 -20 265 -20 l265 0 0 -25 0 -25
-221 0 c-205 0 -220 -1 -217 -17 3 -16 18 -18 111 -21 105 -3 108 -3 105 -25
-2 -18 -10 -23 -45 -25 -35 -3 -43 -7 -43 -23 0 -17 -8 -19 -85 -19 -78 0 -85
-2 -85 -20 0 -18 8 -20 108 -22 99 -3 107 -4 107 -23 0 -13 -8 -21 -22 -23
-15 -2 -23 -10 -23 -23 0 -17 -7 -19 -65 -19 -58 0 -65 -2 -65 -20 0 -18 7
-20 84 -20 l84 0 11 33 c26 79 112 117 184 82 37 -17 77 -69 77 -99 0 -14 20
-16 175 -16 151 0 175 2 175 15 0 29 31 76 63 95 69 42 155 12 192 -67 l19
-43 58 0 c51 0 58 2 58 19 0 13 8 21 23 23 20 3 22 9 25 65 3 58 1 62 -20 65
-14 2 -24 11 -26 23 -2 16 -26 27 -133 58 -119 34 -144 46 -283 132 l-153 95
-235 0 c-129 0 -238 -3 -241 -7z"/>
<path d="M2120 498 c-36 -10 -90 -44 -90 -56 1 -4 14 -22 29 -40 l28 -33 34
20 c40 25 86 27 117 5 39 -27 27 -41 -44 -48 -113 -12 -177 -49 -188 -111 -9
-46 15 -100 56 -125 43 -27 146 -24 177 4 19 17 21 17 21 3 0 -14 11 -17 66
-17 l67 0 -5 138 c-6 173 -24 222 -90 252 -47 21 -121 25 -178 8z m140 -253
c0 -35 -33 -65 -72 -65 -44 0 -60 12 -56 41 4 29 41 49 91 49 33 0 37 -3 37
-25z"/>
<path d="M2680 503 c-8 -3 -27 -17 -42 -31 l-28 -26 0 27 c0 27 -1 27 -65 27
l-65 0 0 -200 0 -200 65 0 65 0 0 100 c0 144 24 190 98 190 28 0 30 3 36 50 4
28 4 55 1 60 -7 11 -40 12 -65 3z"/>
<path d="M3660 501 c-38 -12 -88 -39 -95 -52 -4 -6 7 -25 24 -43 l32 -33 37
18 c44 23 80 24 110 3 38 -26 27 -41 -35 -48 -138 -16 -193 -52 -193 -126 0
-85 50 -130 146 -130 30 0 59 8 80 21 29 17 34 18 34 5 0 -13 12 -16 61 -16
l61 0 -3 148 c-4 160 -14 193 -71 235 -29 22 -143 33 -188 18z m135 -258 c-10
-43 -34 -63 -75 -63 -40 0 -60 14 -60 42 0 24 51 47 104 48 37 0 38 -1 31 -27z"/>
<path d="M4545 498 c-88 -31 -139 -106 -138 -206 1 -127 89 -208 225 -206 57
1 76 6 116 31 26 16 48 35 50 43 1 8 -17 27 -40 42 -42 26 -42 26 -66 7 -40
-31 -97 -25 -135 14 l-32 32 148 3 147 3 0 47 c0 54 -26 117 -61 149 -53 48
-143 66 -214 41z m138 -110 c10 -11 16 -26 14 -32 -4 -13 -146 -21 -158 -9
-11 11 17 52 45 63 31 14 78 3 99 -22z"/>
<path d="M4000 445 l0 -55 87 0 88 0 -93 -93 -92 -92 0 -53 0 -52 180 0 180 0
0 50 0 50 -102 0 -103 0 98 98 97 97 0 53 0 52 -170 0 -170 0 0 -55z"/>
<path d="M349 221 c-17 -18 -29 -40 -29 -56 0 -32 50 -85 80 -85 78 0 119 91
65 145 -34 35 -78 33 -116 -4z"/>
<path d="M965 225 c-52 -51 -16 -145 54 -145 76 0 114 97 57 146 -36 31 -80
31 -111 -1z"/>
</g>
</svg>
